# xmcd
#
# Track frame offsets: 
#        150
#        12963
#        35080
#        45166
#        56425
#        69730
#        82100
#        105637
#        119554
#        142757
#        155507
#        171111
#        183500
#        198282
#        208185
#        219576
#        230709
#        243855
#        253683
#
# Disc length: 3663 seconds
#
# Revision: 0
# Processed by: cddbd v1.5.2PL0 Copyright (c) Steve Scherf et al.
# Submitted via: ExactAudioCopyFreeDBPlugin 1.0
#
DISCID=0f0e4d13
DTITLE=Johnny Copeland - Working Man's Blues
DYEAR=1999
DGENRE=Blues
TTITLE0=Daily Bread
TTITLE1=Drinking New York City Dry
TTITLE2=Wella Wella Baby
TTITLE3=Down on Bended Knee
TTITLE4=Just One More Time
TTITLE5=Let Me Cry
TTITLE6=Night Time Is the Right Time, Pts. 1 and 2
TTITLE7=Working Man's Blues
TTITLE8=Rock Me Baby
TTITLE9=All These Things
TTITLE10=Ghetto Child
TTITLE11=Heebie Jeebies
TTITLE12=I Need You Now
TTITLE13=Late Hours
TTITLE14=May the Best Man Win
TTITLE15=Please Let Me Know
TTITLE16=Remus
TTITLE17=It Must Be Love
TTITLE18=Traveling Man
EXTD=
EXTT0=
EXTT1=
EXTT2=
EXTT3=
EXTT4=
EXTT5=
EXTT6=
EXTT7=
EXTT8=
EXTT9=
EXTT10=
EXTT11=
EXTT12=
EXTT13=
EXTT14=
EXTT15=
EXTT16=
EXTT17=
EXTT18=
PLAYORDER=
